{
  "asset": {
    "version": "2.0",
    "generator": "THREE.GLTFExporter"
  },
  "scenes": [
    {
      "nodes": [
        0
      ]
    }
  ],
  "scene": 0,
  "nodes": [
    {
      "children": [
        11
      ],
      "matrix": [
        0.01,
        0,
        0,
        0,
        0,
        0.01,
        0,
        0,
        0,
        0,
        0.01,
        0,
        0,
        0,
        0,
        1
      ]
    },
    {
      "matrix": [
        1.1111111111111112,
        3.08395284618099e-17,
        -1.7119377283442097e-33,
        0,
        3.08395284618099e-17,
        1.111111111111111,
        -6.16790569236198e-17,
        0,
        2.5518148558219452e-17,
        1.2759074279109719e-17,
        0.2298470486759641,
        0,
        0.525826246222866,
        28.314145670996826,
        2.495854043773413,
        1.0000000000000002
      ],
      "name": "Sphere",
      "mesh": 0
    },
    {
      "matrix": [
        1.1111111111111112,
        3.08395284618099e-17,
        -1.7119377283442097e-33,
        0,
        3.083952846180989e-17,
        1.1111111111111107,
        -6.167905692361979e-17,
        0,
        1.233581138472396e-16,
        6.167905692361977e-17,
        1.1111111111111107,
        0,
        -0.05412559017858831,
        27.279312852257302,
        -7.6514089687479725,
        1
      ],
      "name": "Ellipse",
      "mesh": 1
    },
    {
      "matrix": [
        1.1111111111111112,
        3.08395284618099e-17,
        -1.7119377283442097e-33,
        0,
        3.083952846180989e-17,
        1.1111111111111107,
        -6.167905692361979e-17,
        0,
        1.233581138472396e-16,
        6.167905692361977e-17,
        1.1111111111111107,
        0,
        -4.551914400963142e-15,
        -57.24140988455869,
        -0.6007930967542834,
        1
      ],
      "name": "Cube",
      "mesh": 2
    },
    {
      "matrix": [
        1,
        0,
        0,
        0,
        0,
        1,
        0,
        0,
        0,
        0,
        1,
        0,
        -0.5258262462228577,
        268.3529604507896,
        -3.067625061314903,
        1
      ],
      "name": "bracing",
      "children": [
        1,
        2,
        3
      ]
    },
    {
      "matrix": [
        1,
        0,
        0,
        0,
        0,
        1,
        0,
        0,
        0,
        0,
        1,
        0,
        2,
        0.5345485893888338,
        0,
        1
      ],
      "name": "Lamination",
      "mesh": 3
    },
    {
      "matrix": [
        1,
        0,
        0,
        0,
        0,
        1,
        0,
        0,
        0,
        0,
        1,
        0,
        0,
        -17.28392341580968,
        0,
        1
      ],
      "name": "Card (PLACE YOUR IMAGE) 2",
      "mesh": 4
    },
    {
      "matrix": [
        1,
        0,
        0,
        0,
        0,
        1,
        0,
        0,
        0,
        0,
        1,
        0,
        0,
        -17.28392341580968,
        -2.1,
        1
      ],
      "name": "Card other side(PLACE YOUR IMAGE)",
      "mesh": 5
    },
    {
      "matrix": [
        0.9487397904213918,
        -0.004140387134193129,
        0.3160311175589397,
        0,
        0.06634234890812217,
        0.980246613410635,
        -0.18632034145077916,
        0,
        -0.3090169943749475,
        0.19773576836617326,
        0.9302736495763562,
        0,
        3.3306690738754696e-16,
        -1.7763568394002505e-15,
        -3.885780586188048e-16,
        1
      ],
      "name": "Pass",
      "children": [
        4,
        5,
        6,
        7
      ]
    },
    {
      "matrix": [
        0.9787260714281567,
        -1.3877787807814457e-17,
        -0.20517133597753542,
        0,
        -0.06546851758193209,
        0.9477237678753591,
        -0.3123035910932771,
        0,
        0.19444575159265107,
        0.3190919300203824,
        0.9275619601317404,
        0,
        196.59151223693084,
        278.1462147862028,
        785.0424242358202,
        1
      ],
      "camera": 0
    },
    {
      "matrix": [
        1,
        0,
        0,
        0,
        0,
        1,
        0,
        0,
        0,
        0,
        1,
        0,
        0,
        1,
        0,
        1
      ],
      "name": "Default Ambient Light"
    },
    {
      "name": "Scene",
      "children": [
        8,
        9,
        10
      ]
    }
  ],
  "bufferViews": [
    {
      "buffer": 0,
      "byteOffset": 0,
      "byteLength": 50700,
      "target": 34962,
      "byteStride": 12
    },
    {
      "buffer": 0,
      "byteOffset": 50700,
      "byteLength": 50700,
      "target": 34962,
      "byteStride": 12
    },
    {
      "buffer": 0,
      "byteOffset": 101400,
      "byteLength": 33800,
      "target": 34962,
      "byteStride": 8
    },
    {
      "buffer": 0,
      "byteOffset": 135200,
      "byteLength": 48384,
      "target": 34963
    },
    {
      "buffer": 0,
      "byteOffset": 183584,
      "byteLength": 4656,
      "target": 34962,
      "byteStride": 12
    },
    {
      "buffer": 0,
      "byteOffset": 188240,
      "byteLength": 4656,
      "target": 34962,
      "byteStride": 12
    },
    {
      "buffer": 0,
      "byteOffset": 192896,
      "byteLength": 3104,
      "target": 34962,
      "byteStride": 8
    },
    {
      "buffer": 0,
      "byteOffset": 196000,
      "byteLength": 6096,
      "target": 34963
    },
    {
      "buffer": 0,
      "byteOffset": 202096,
      "byteLength": 23040,
      "target": 34962,
      "byteStride": 12
    },
    {
      "buffer": 0,
      "byteOffset": 225136,
      "byteLength": 23040,
      "target": 34962,
      "byteStride": 12
    },
    {
      "buffer": 0,
      "byteOffset": 248176,
      "byteLength": 11520,
      "target": 34963
    },
    {
      "buffer": 0,
      "byteOffset": 259696,
      "byteLength": 133632,
      "target": 34962,
      "byteStride": 12
    },
    {
      "buffer": 0,
      "byteOffset": 393328,
      "byteLength": 133632,
      "target": 34962,
      "byteStride": 12
    },
    {
      "buffer": 0,
      "byteOffset": 526960,
      "byteLength": 66816,
      "target": 34963
    },
    {
      "buffer": 0,
      "byteOffset": 593776,
      "byteLength": 23880,
      "target": 34962,
      "byteStride": 12
    },
    {
      "buffer": 0,
      "byteOffset": 617656,
      "byteLength": 23880,
      "target": 34962,
      "byteStride": 12
    },
    {
      "buffer": 0,
      "byteOffset": 641536,
      "byteLength": 15920,
      "target": 34962,
      "byteStride": 8
    },
    {
      "buffer": 0,
      "byteOffset": 657456,
      "byteLength": 35376,
      "target": 34963
    },
    {
      "buffer": 0,
      "byteOffset": 692832,
      "byteLength": 23880,
      "target": 34962,
      "byteStride": 12
    },
    {
      "buffer": 0,
      "byteOffset": 716712,
      "byteLength": 23880,
      "target": 34962,
      "byteStride": 12
    },
    {
      "buffer": 0,
      "byteOffset": 740592,
      "byteLength": 15920,
      "target": 34962,
      "byteStride": 8
    },
    {
      "buffer": 0,
      "byteOffset": 756512,
      "byteLength": 35376,
      "target": 34963
    }
  ],
  "buffers": [
    {
      "byteLength": 791888,
      "uri": "data:application/octet-stream;base64,"
    }
  ],
  "accessors": [
    {
      "bufferView": 0,
      "componentType": 5126,
      "count": 4225,
      "max": [
        15.179304122924805,
        15.179304122924805,
        15.179304122924805
      ],
      "min": [
        -15.179304122924805,
        -15.179304122924805,
        -15.179304122924805
      ],
      "type": "VEC3"
    },
    {
      "bufferView": 1,
      "componentType": 5126,
      "count": 4225,
      "max": [
        1,
        1,
        1
      ],
      "min": [
        -1,
        -1,
        -1
      ],
      "type": "VEC3"
    },
    {
      "bufferView": 2,
      "componentType": 5126,
      "count": 4225,
      "max": [
        1.0078125,
        1
      ],
      "min": [
        -0.0078125,
        0
      ],
      "type": "VEC2"
    },
    {
      "bufferView": 3,
      "componentType": 5123,
      "count": 24192,
      "max": [
        4224
      ],
      "min": [
        0
      ],
      "type": "SCALAR"
    },
    {
      "bufferView": 4,
      "componentType": 5126,
      "count": 388,
      "max": [
        13.766443252563477,
        13.766443252563477,
        10
      ],
      "min": [
        -13.766443252563477,
        -13.766443252563477,
        0
      ],
      "type": "VEC3"
    },
    {
      "bufferView": 5,
      "componentType": 5126,
      "count": 388,
      "max": [
        0.9987275004386902,
        0.9987275004386902,
        1
      ],
      "min": [
        -0.9987275004386902,
        -0.9987275004386902,
        -1
      ],
      "type": "VEC3"
    },
    {
      "bufferView": 6,
      "componentType": 5126,
      "count": 388,
      "max": [
        1,
        1
      ],
      "min": [
        0,
        0
      ],
      "type": "VEC2"
    },
    {
      "bufferView": 7,
      "componentType": 5125,
      "count": 1524,
      "max": [
        387
      ],
      "min": [
        0
      ],
      "type": "SCALAR"
    },
    {
      "bufferView": 8,
      "componentType": 5126,
      "count": 1920,
      "max": [
        20.625,
        101.31695556640625,
        13.673260688781738
      ],
      "min": [
        -20.625,
        -0.5978065729141235,
        -13.144542694091797
      ],
      "type": "VEC3"
    },
    {
      "bufferView": 9,
      "componentType": 5126,
      "count": 1920,
      "max": [
        1,
        0.9998455047607422,
        0.9999539256095886
      ],
      "min": [
        -1,
        -0.9999623894691467,
        -0.999997079372406
      ],
      "type": "VEC3"
    },
    {
      "bufferView": 10,
      "componentType": 5125,
      "count": 2880,
      "max": [
        1919
      ],
      "min": [
        0
      ],
      "type": "SCALAR"
    },
    {
      "bufferView": 11,
      "componentType": 5126,
      "count": 11136,
      "max": [
        163.73577880859375,
        234.65789794921875,
        13.637075424194336
      ],
      "min": [
        -163.73577880859375,
        -234.48182678222656,
        -4.17545747756958
      ],
      "type": "VEC3"
    },
    {
      "bufferView": 12,
      "componentType": 5126,
      "count": 11136,
      "max": [
        1,
        1,
        0.9999988079071045
      ],
      "min": [
        -1,
        -1,
        -1
      ],
      "type": "VEC3"
    },
    {
      "bufferView": 13,
      "componentType": 5125,
      "count": 16704,
      "max": [
        11135
      ],
      "min": [
        0
      ],
      "type": "SCALAR"
    },
    {
      "bufferView": 14,
      "componentType": 5126,
      "count": 1990,
      "max": [
        140,
        190,
        2
      ],
      "min": [
        -140,
        -190,
        0
      ],
      "type": "VEC3"
    },
    {
      "bufferView": 15,
      "componentType": 5126,
      "count": 1990,
      "max": [
        1,
        1,
        1
      ],
      "min": [
        -1,
        -1,
        -1
      ],
      "type": "VEC3"
    },
    {
      "bufferView": 16,
      "componentType": 5126,
      "count": 1990,
      "max": [
        1,
        1
      ],
      "min": [
        0,
        0
      ],
      "type": "VEC2"
    },
    {
      "bufferView": 17,
      "componentType": 5125,
      "count": 8844,
      "max": [
        1989
      ],
      "min": [
        0
      ],
      "type": "SCALAR"
    },
    {
      "bufferView": 18,
      "componentType": 5126,
      "count": 1990,
      "max": [
        140,
        190,
        2
      ],
      "min": [
        -140,
        -190,
        0
      ],
      "type": "VEC3"
    },
    {
      "bufferView": 19,
      "componentType": 5126,
      "count": 1990,
      "max": [
        1,
        1,
        1
      ],
      "min": [
        -1,
        -1,
        -1
      ],
      "type": "VEC3"
    },
    {
      "bufferView": 20,
      "componentType": 5126,
      "count": 1990,
      "max": [
        1,
        1
      ],
      "min": [
        0,
        0
      ],
      "type": "VEC2"
    },
    {
      "bufferView": 21,
      "componentType": 5125,
      "count": 8844,
      "max": [
        1989
      ],
      "min": [
        0
      ],
      "type": "SCALAR"
    }
  ],
  "meshes": [
    {
      "primitives": [
        {
          "mode": 4,
          "attributes": {
            "POSITION": 0,
            "NORMAL": 1,
            "TEXCOORD_0": 2
          },
          "extras": {
            "parameters": {
              "width": 30.358607973186505,
              "widthSegments": 64,
              "heightSegments": 64,
              "phiStart": 0,
              "phiLength": 6.283185307179586,
              "thetaStart": 0,
              "thetaLength": 180,
              "height": 30.358607973186505,
              "depth": 30.358607973186505,
              "type": "SphereGeometry"
            },
            "type": "SphereGeometry"
          },
          "indices": 3
        }
      ]
    },
    {
      "primitives": [
        {
          "mode": 4,
          "attributes": {
            "POSITION": 4,
            "NORMAL": 5,
            "TEXCOORD_0": 6
          },
          "extras": {
            "shape": {
              "points": [
                -13.766443555825902,
                0,
                -13.766443555825902,
                -7.60299683486513,
                -13.766443555825902,
                7.60299683486513,
                0,
                0,
                13.766443555825902,
                -7.60299683486513,
                13.766443555825902,
                7.60299683486513,
                13.766443555825902,
                0,
                13.766443555825902,
                0,
                13.766443555825902,
                7.60299683486513,
                13.766443555825902,
                -7.60299683486513,
                0,
                0,
                -13.766443555825902,
                7.60299683486513,
                -13.766443555825902,
                -7.60299683486513,
                -13.766443555825902,
                0
              ],
              "shapeHoles": [],
              "isClosed": true,
              "roundness": 0
            },
            "parameters": {
              "width": 27.532887111651803,
              "depth": 10,
              "spikes": 64,
              "angle": 360,
              "innerRadius": 0,
              "extrudeBevelSize": 2,
              "extrudeBevelSegments": 1,
              "height": 27.532887111651803,
              "type": "EllipseGeometry"
            },
            "type": "EllipseGeometry"
          },
          "indices": 7
        }
      ]
    },
    {
      "primitives": [
        {
          "mode": 4,
          "attributes": {
            "POSITION": 8,
            "NORMAL": 9
          },
          "extras": {
            "type": "SubdivGeometry",
            "parameters": {
              "width": 44,
              "height": 105.97989702224731,
              "depth": 29.113764762878418
            }
          },
          "indices": 10
        }
      ]
    },
    {
      "primitives": [
        {
          "mode": 4,
          "attributes": {
            "POSITION": 11,
            "NORMAL": 12
          },
          "extras": {
            "type": "SubdivGeometry",
            "parameters": {
              "width": 328.5935363769531,
              "height": 470.0856018066406,
              "depth": 18.559529304504395
            }
          },
          "indices": 13
        }
      ]
    },
    {
      "primitives": [
        {
          "mode": 4,
          "attributes": {
            "POSITION": 14,
            "NORMAL": 15,
            "TEXCOORD_0": 16
          },
          "extras": {
            "shape": {
              "points": [
                -140,
                190,
                -140,
                190,
                -140,
                190,
                12,
                140,
                190,
                140,
                190,
                140,
                190,
                12,
                140,
                -190,
                140,
                -190,
                140,
                -190,
                12,
                -140,
                -190,
                -140,
                -190,
                -140,
                -190,
                12
              ],
              "shapeHoles": [],
              "isClosed": true,
              "roundness": 12
            },
            "parameters": {
              "width": 280,
              "depth": 2,
              "cornerRadius": [
                12,
                12,
                12,
                12
              ],
              "cornerType": 0,
              "extrudeBevelSize": 2,
              "extrudeBevelSegments": 4,
              "height": 380,
              "type": "RectangleGeometry"
            },
            "ui": {
              "enabledIndieCorners": false
            },
            "type": "RectangleGeometry"
          },
          "indices": 17
        }
      ]
    },
    {
      "primitives": [
        {
          "mode": 4,
          "attributes": {
            "POSITION": 18,
            "NORMAL": 19,
            "TEXCOORD_0": 20
          },
          "extras": {
            "shape": {
              "points": [
                -140,
                190,
                -140,
                190,
                -140,
                190,
                12,
                140,
                190,
                140,
                190,
                140,
                190,
                12,
                140,
                -190,
                140,
                -190,
                140,
                -190,
                12,
                -140,
                -190,
                -140,
                -190,
                -140,
                -190,
                12
              ],
              "shapeHoles": [],
              "isClosed": true,
              "roundness": 12
            },
            "parameters": {
              "width": 280,
              "depth": 2,
              "cornerRadius": [
                12,
                12,
                12,
                12
              ],
              "cornerType": 0,
              "extrudeBevelSize": 2,
              "extrudeBevelSegments": 4,
              "height": 380,
              "type": "RectangleGeometry"
            },
            "ui": {
              "enabledIndieCorners": false
            },
            "type": "RectangleGeometry"
          },
          "indices": 21
        }
      ]
    }
  ],
  "cameras": [
    {
      "type": "perspective",
      "perspective": {
        "aspectRatio": 2.1301775147928996,
        "yfov": 0.7853981633974483,
        "zfar": 100000,
        "znear": 70
      }
    }
  ]
}